<svg width="28" height="22" viewBox="0 0 28 22" fill="none" xmlns="http://www.w3.org/2000/svg">
  <path fill-rule="evenodd" clip-rule="evenodd"
    d="M4.66663 2.99998C4.313 2.99998 3.97387 3.14046 3.72382 3.3905C3.47377 3.64055 3.33329 3.97969 3.33329 4.33331V7.22874C3.8905 7.42575 4.40251 7.74568 4.82839 8.17155C5.57853 8.9217 5.99996 9.93911 5.99996 11C5.99996 12.0608 5.57853 13.0783 4.82839 13.8284C4.40251 14.2543 3.8905 14.5742 3.33329 14.7712V17.6666C3.33329 18.0203 3.47377 18.3594 3.72382 18.6095C3.97387 18.8595 4.313 19 4.66663 19H16.6666V17.6666C16.6666 16.9303 17.2636 16.3333 18 16.3333C18.7363 16.3333 19.3333 16.9303 19.3333 17.6666V19H23.3333C23.6869 19 24.0261 18.8595 24.2761 18.6095C24.5261 18.3594 24.6666 18.0203 24.6666 17.6666V14.7712C24.1094 14.5742 23.5974 14.2543 23.1715 13.8284C22.4214 13.0783 22 12.0608 22 11C22 9.93911 22.4214 8.9217 23.1715 8.17155C23.5974 7.74568 24.1094 7.42575 24.6666 7.22874V4.33331C24.6666 3.97969 24.5261 3.64055 24.2761 3.3905C24.0261 3.14046 23.6869 2.99998 23.3333 2.99998H19.3333V4.33331C19.3333 5.06969 18.7363 5.66665 18 5.66665C17.2636 5.66665 16.6666 5.06969 16.6666 4.33331V2.99998H4.66663ZM4.66663 0.333313C3.60576 0.333313 2.58834 0.75474 1.8382 1.50489C1.08805 2.25503 0.666626 3.27245 0.666626 4.33331V8.33331C0.666626 9.06969 1.26358 9.66665 1.99996 9.66665C2.35358 9.66665 2.69272 9.80712 2.94277 10.0572C3.19282 10.3072 3.33329 10.6464 3.33329 11C3.33329 11.3536 3.19282 11.6927 2.94277 11.9428C2.69272 12.1928 2.35358 12.3333 1.99996 12.3333C1.26358 12.3333 0.666626 12.9303 0.666626 13.6666V17.6666C0.666626 18.7275 1.08805 19.7449 1.8382 20.4951C2.58834 21.2452 3.60576 21.6666 4.66663 21.6666H23.3333C24.3942 21.6666 25.4116 21.2452 26.1617 20.4951C26.9119 19.7449 27.3333 18.7275 27.3333 17.6666V13.6666C27.3333 12.9303 26.7363 12.3333 26 12.3333C25.6463 12.3333 25.3072 12.1928 25.0571 11.9428C24.8071 11.6927 24.6666 11.3536 24.6666 11C24.6666 10.6464 24.8071 10.3072 25.0571 10.0572C25.3072 9.80712 25.6463 9.66665 26 9.66665C26.7363 9.66665 27.3333 9.06969 27.3333 8.33331V4.33331C27.3333 3.27245 26.9119 2.25503 26.1617 1.50489C25.4116 0.75474 24.3942 0.333313 23.3333 0.333313H4.66663ZM18 8.33331C18.7363 8.33331 19.3333 8.93027 19.3333 9.66665V12.3333C19.3333 13.0697 18.7363 13.6666 18 13.6666C17.2636 13.6666 16.6666 13.0697 16.6666 12.3333V9.66665C16.6666 8.93027 17.2636 8.33331 18 8.33331Z"
    fill="#F94144" />
</svg>