<svg width="174" height="132" viewBox="0 0 174 132" fill="none" xmlns="http://www.w3.org/2000/svg">
  <path
    d="M22.729 71.5693C23.9002 70.9837 25.1263 70.6909 26.4074 70.6909C27.725 70.6909 28.7864 71.0935 29.5916 71.8987C30.4334 72.7039 30.8543 73.6738 30.8543 74.8084C30.8543 75.943 30.6896 78.4502 30.3602 82.3299C30.0308 86.1729 29.8661 89.2291 29.8661 91.4983C29.8661 98.7818 30.1955 104.839 30.8543 109.671C29.6831 110.11 28.3655 110.329 26.9015 110.329C25.474 110.329 24.3577 110.091 23.5525 109.616C21.2101 108.261 15.7383 99.6969 7.13712 83.922C6.99072 85.3494 6.91752 88.6984 6.91752 93.9689C6.91752 99.2028 7.32013 104.327 8.12534 109.341C6.99072 109.78 5.7646 110 4.44698 110C3.12935 110 2.04964 109.579 1.20782 108.737C0.402611 107.895 0 106.889 0 105.718C0 104.546 0.164704 102.094 0.49411 98.3609C0.860116 94.6277 1.04312 91.8094 1.04312 89.9062C1.04312 82.6227 0.695412 76.5836 0 71.7889C1.02482 71.2765 2.52544 71.0203 4.50188 71.0203C6.47831 71.0203 7.86914 71.8072 8.67435 73.381C14.0912 84.3978 19.2702 93.731 24.2113 101.38C24.1015 94.3532 24.0466 90.6382 24.0466 90.2356C24.0466 83.3913 23.6074 77.1692 22.729 71.5693Z"
    fill="white" />
  <path
    d="M41.0668 97.5374C41.0668 100.173 41.4877 102.259 42.3295 103.796C43.1713 105.297 44.5804 106.047 46.5569 106.047C48.5333 106.047 50.0705 105.388 51.1685 104.071C52.3032 102.716 52.8705 101.088 52.8705 99.1845C54.1149 99.1845 55.1946 99.4956 56.1096 100.118C57.0247 100.74 57.4822 101.6 57.4822 102.698C57.4822 104.967 56.2743 106.871 53.8587 108.408C51.4431 109.908 48.8993 110.659 46.2275 110.659C42.055 110.659 39.0354 109.542 37.1688 107.31C35.3022 105.041 34.3689 101.692 34.3689 97.2629C34.3689 92.8342 35.6133 89.1193 38.1021 86.118C40.6276 83.0802 43.9765 81.5612 48.149 81.5612C51.0039 81.5612 53.2914 82.2201 55.0116 83.5377C56.7684 84.8187 57.6469 86.8317 57.6469 89.5768C57.6469 92.2852 56.4024 94.3349 53.9136 95.7257C51.4613 97.0799 48.4601 97.757 44.9098 97.757C43.6654 97.757 42.3844 97.6838 41.0668 97.5374ZM41.1217 93.2002C42.2197 93.4198 43.3726 93.5297 44.5804 93.5297C47.2157 93.5297 49.43 93.0355 51.2234 92.0473C51.4431 91.1689 51.5529 90.4735 51.5529 89.9611C51.5529 88.6801 51.0953 87.7101 50.1803 87.0513C49.2653 86.3925 48.0026 86.0631 46.3922 86.0631C44.8183 86.0631 43.3909 86.5755 42.1099 87.6003C41.4511 89.5036 41.1217 91.3702 41.1217 93.2002Z"
    fill="white" />
  <path
    d="M87.9153 84.1416C86.9271 88.3507 86.433 92.578 86.433 96.8237C86.433 101.033 86.9088 105.205 87.8604 109.341C86.5428 109.78 85.1886 110 83.7977 110C82.4069 110 81.437 109.597 80.888 108.792C80.339 107.95 80.0645 106.761 80.0645 105.224C80.0645 103.65 80.3024 101.509 80.7782 98.8001C78.1795 104.363 75.6724 107.877 73.2568 109.341C72.1587 110 71.0241 110.329 69.8529 110.329C67.0712 110.329 64.9118 109.305 63.3746 107.255C61.8373 105.169 61.0687 102.588 61.0687 99.5139C61.0687 94.829 62.3681 90.7297 64.9667 87.216C67.5654 83.6658 70.9326 81.8906 75.0685 81.8906C79.241 81.8906 83.5232 82.641 87.9153 84.1416ZM80.7233 87.4356C78.7834 86.85 77.1364 86.5572 75.7822 86.5572C73.0371 86.5572 70.9875 87.1611 69.6333 88.369C68.3889 91.4434 67.7666 94.5728 67.7666 97.757C67.7666 99.4407 68.0229 101.143 68.5353 102.863C69.0843 104.583 69.9078 105.443 71.0058 105.443C72.2868 105.443 73.9339 103.558 75.9469 99.7884C77.9599 96.0185 79.5521 91.9009 80.7233 87.4356Z"
    fill="white" />
  <path
    d="M100.813 109.341C99.6781 109.78 98.4703 110 97.1893 110C95.9082 110 94.8651 109.707 94.0599 109.122C93.2913 108.499 92.907 107.658 92.907 106.596C92.907 105.498 93.0717 103.522 93.4011 100.667C93.7305 97.8119 93.8952 95.0486 93.8952 92.3767C93.8952 89.6683 93.4743 86.5023 92.6325 82.8789C93.8037 82.4397 94.9566 82.2201 96.0913 82.2201C97.2259 82.2201 98.1958 82.6044 99.001 83.373C99.8428 84.1416 100.264 85.1664 100.264 86.4474C100.264 87.1062 100.154 88.0945 99.9343 89.4121C99.7147 90.6931 99.5866 91.663 99.55 92.3218C100.977 89.0644 102.661 86.5206 104.601 84.6906C106.577 82.824 108.535 81.8906 110.475 81.8906C111.83 81.8906 112.909 82.3665 113.714 83.3181C114.52 84.2697 114.922 85.4775 114.922 86.9415C114.922 88.369 114.556 89.5402 113.824 90.4552C113.092 91.3336 112.177 91.7728 111.079 91.7728C110.018 91.7728 109.158 91.663 108.499 91.4434C108.609 91.0042 108.664 90.6016 108.664 90.2356C108.664 88.735 108.133 87.9847 107.071 87.9847C105.461 87.9847 103.942 89.6134 102.515 92.8708C101.124 96.0917 100.191 99.1112 99.7147 101.929C99.8977 104.675 100.264 107.145 100.813 109.341Z"
    fill="white" />
  <path
    d="M117.834 108.078C118.676 100.795 119.096 95.7806 119.096 93.0355C119.096 85.3494 118.785 77.4986 118.163 69.483C119.261 69.0438 120.432 68.8242 121.677 68.8242C122.921 68.8242 123.983 69.2451 124.861 70.0869C125.739 70.9288 126.179 71.9902 126.179 73.2712C126.179 75.4672 125.959 78.9809 125.52 83.8122C125.081 88.6069 124.806 91.8094 124.696 93.4198C127.698 87.7834 130.681 84.2697 133.645 82.8789C134.963 82.2201 136.372 81.8906 137.873 81.8906C139.922 81.8906 141.496 82.9704 142.594 85.1298C143.729 87.2892 144.296 89.9245 144.296 93.0355C144.296 98.0132 142.942 102.149 140.233 105.443C137.525 108.701 134.011 110.329 129.692 110.329C125.41 110.329 121.457 109.579 117.834 108.078ZM124.422 104.62C125.886 105.169 127.624 105.443 129.637 105.443C131.65 105.443 133.389 105.059 134.853 104.29C136.646 101.216 137.543 97.8668 137.543 94.2434C137.543 92.5231 137.342 90.8578 136.939 89.2474C136.537 87.6003 135.896 86.7768 135.018 86.7768C133.664 86.7768 131.888 88.6435 129.692 92.3767C127.496 96.11 125.739 100.191 124.422 104.62Z"
    fill="white" />
  <path
    d="M149.427 100.886L149.976 92.9806C149.976 89.4304 149.463 86.0631 148.438 82.8789C149.463 82.4397 150.726 82.2201 152.227 82.2201C155.155 82.2201 156.619 83.8488 156.619 87.1062C156.619 88.5703 156.417 90.6382 156.015 93.31C155.612 95.9819 155.411 97.8302 155.411 98.855C155.411 99.8433 155.429 100.575 155.466 101.051C155.502 101.49 155.594 102.021 155.74 102.643C155.96 103.888 156.674 104.51 157.881 104.51C159.126 104.51 160.443 103.54 161.834 101.6C163.262 99.6237 164.396 97.4459 165.238 95.0669C166.117 92.6878 166.556 90.8029 166.556 89.4121C166.373 86.5206 166.062 84.3429 165.622 82.8789C166.794 82.4397 167.983 82.2201 169.191 82.2201C170.435 82.2201 171.46 82.6044 172.265 83.373C173.107 84.1416 173.528 85.1664 173.528 86.4474C173.528 106.431 167.868 126.418 160.548 130.408C158.901 131.286 157.034 131.725 154.948 131.725C152.862 131.725 151.032 131.176 149.458 130.078C147.921 128.98 145.152 127.443 145.152 125.466C145.152 124.149 147.646 123.033 148.635 122.118C149.623 121.239 150.794 120.8 152.148 120.8C152.441 120.8 152.807 120.836 153.246 120.91C153.136 121.385 153.081 121.806 153.081 122.172C153.081 125.393 154.198 127.004 156.43 127.004C157.785 127.004 159.011 126.272 160.109 124.808C161.207 123.344 162.085 121.55 162.744 119.427C164.025 115.108 166.666 103.192 166.666 99.6786C165.568 102.643 164.067 105.041 162.164 106.871C160.297 108.664 158.266 109.561 156.07 109.561C151.641 109.561 149.427 106.669 149.427 100.886Z"
    fill="white" />
  <path
    d="M4.29598 132C3.32531 132 2.53064 131.813 1.91198 131.44C1.30398 131.056 0.850645 130.539 0.551978 129.888C0.253311 129.237 0.087978 128.496 0.0559779 127.664C0.0453113 127.227 0.039978 126.757 0.039978 126.256C0.039978 125.755 0.0453113 125.275 0.0559779 124.816C0.087978 123.984 0.253311 123.243 0.551978 122.592C0.850645 121.931 1.30398 121.413 1.91198 121.04C2.53064 120.667 3.32531 120.48 4.29598 120.48C5.05331 120.48 5.69865 120.587 6.23198 120.8C6.76531 121.013 7.19731 121.296 7.52798 121.648C7.86931 121.989 8.11998 122.363 8.27998 122.768C8.45065 123.163 8.54665 123.552 8.56798 123.936C8.57865 124.032 8.54665 124.112 8.47198 124.176C8.40798 124.229 8.32798 124.256 8.23198 124.256H7.91198C7.82665 124.256 7.75198 124.235 7.68798 124.192C7.62398 124.139 7.58131 124.048 7.55998 123.92C7.35731 122.971 6.97331 122.32 6.40798 121.968C5.85331 121.616 5.14931 121.44 4.29598 121.44C3.32531 121.44 2.55198 121.717 1.97598 122.272C1.41064 122.816 1.10664 123.691 1.06398 124.896C1.03198 125.771 1.03198 126.667 1.06398 127.584C1.10664 128.789 1.41064 129.669 1.97598 130.224C2.55198 130.768 3.32531 131.04 4.29598 131.04C5.14931 131.04 5.85331 130.864 6.40798 130.512C6.97331 130.16 7.35731 129.509 7.55998 128.56C7.58131 128.432 7.62398 128.347 7.68798 128.304C7.75198 128.251 7.82665 128.224 7.91198 128.224H8.23198C8.32798 128.224 8.40798 128.256 8.47198 128.32C8.54665 128.373 8.57865 128.448 8.56798 128.544C8.54665 128.928 8.45065 129.323 8.27998 129.728C8.11998 130.123 7.86931 130.496 7.52798 130.848C7.19731 131.189 6.76531 131.467 6.23198 131.68C5.69865 131.893 5.05331 132 4.29598 132Z"
    fill="white" />
  <path
    d="M11.0859 131.84C10.9792 131.84 10.8939 131.808 10.8299 131.744C10.7659 131.68 10.7339 131.595 10.7339 131.488V120.832C10.7339 120.725 10.7659 120.64 10.8299 120.576C10.8939 120.512 10.9792 120.48 11.0859 120.48H11.3579C11.4645 120.48 11.5499 120.512 11.6139 120.576C11.6779 120.64 11.7099 120.725 11.7099 120.832V131.488C11.7099 131.595 11.6779 131.68 11.6139 131.744C11.5499 131.808 11.4645 131.84 11.3579 131.84H11.0859Z"
    fill="white" />
  <path
    d="M17.4316 132C16.7063 132 16.1036 131.845 15.6236 131.536C15.1543 131.216 14.8023 130.784 14.5676 130.24C14.3436 129.696 14.2316 129.088 14.2316 128.416V123.872C14.2316 123.765 14.2636 123.68 14.3276 123.616C14.3916 123.552 14.4769 123.52 14.5836 123.52H14.8556C14.9623 123.52 15.0476 123.552 15.1116 123.616C15.1756 123.68 15.2076 123.765 15.2076 123.872V128.336C15.2076 130.16 16.0023 131.072 17.5916 131.072C18.3489 131.072 18.9569 130.832 19.4156 130.352C19.8743 129.861 20.1036 129.189 20.1036 128.336V123.872C20.1036 123.765 20.1356 123.68 20.1996 123.616C20.2636 123.552 20.3489 123.52 20.4556 123.52H20.7276C20.8343 123.52 20.9196 123.552 20.9836 123.616C21.0476 123.68 21.0796 123.765 21.0796 123.872V131.488C21.0796 131.595 21.0476 131.68 20.9836 131.744C20.9196 131.808 20.8343 131.84 20.7276 131.84H20.4556C20.3489 131.84 20.2636 131.808 20.1996 131.744C20.1356 131.68 20.1036 131.595 20.1036 131.488V130.736C19.8156 131.109 19.4689 131.413 19.0636 131.648C18.6689 131.883 18.1249 132 17.4316 132Z"
    fill="white" />
  <path
    d="M27.351 132C26.6896 132 26.1403 131.883 25.703 131.648C25.2763 131.403 24.9296 131.099 24.663 130.736V131.488C24.663 131.595 24.631 131.68 24.567 131.744C24.503 131.808 24.4176 131.84 24.311 131.84H24.039C23.9323 131.84 23.847 131.808 23.783 131.744C23.719 131.68 23.687 131.595 23.687 131.488V120.832C23.687 120.725 23.719 120.64 23.783 120.576C23.847 120.512 23.9323 120.48 24.039 120.48H24.311C24.4176 120.48 24.503 120.512 24.567 120.576C24.631 120.64 24.663 120.725 24.663 120.832V124.624C24.9296 124.272 25.2763 123.973 25.703 123.728C26.1403 123.483 26.6896 123.36 27.351 123.36C27.9803 123.36 28.5083 123.472 28.935 123.696C29.3616 123.92 29.7083 124.219 29.975 124.592C30.2416 124.965 30.439 125.381 30.567 125.84C30.695 126.299 30.7643 126.763 30.775 127.232C30.7856 127.392 30.791 127.541 30.791 127.68C30.791 127.819 30.7856 127.968 30.775 128.128C30.7643 128.597 30.695 129.061 30.567 129.52C30.439 129.979 30.2416 130.395 29.975 130.768C29.7083 131.141 29.3616 131.44 28.935 131.664C28.5083 131.888 27.9803 132 27.351 132ZM27.255 131.072C27.8843 131.072 28.3803 130.933 28.743 130.656C29.1056 130.379 29.367 130.016 29.527 129.568C29.687 129.12 29.7776 128.64 29.799 128.128C29.8096 127.829 29.8096 127.531 29.799 127.232C29.7776 126.72 29.687 126.24 29.527 125.792C29.367 125.344 29.1056 124.981 28.743 124.704C28.3803 124.427 27.8843 124.288 27.255 124.288C26.6683 124.288 26.183 124.427 25.799 124.704C25.4256 124.981 25.143 125.328 24.951 125.744C24.7696 126.16 24.6736 126.581 24.663 127.008C24.6523 127.168 24.647 127.376 24.647 127.632C24.647 127.888 24.6523 128.096 24.663 128.256C24.6843 128.693 24.7803 129.131 24.951 129.568C25.1323 129.995 25.4096 130.352 25.783 130.64C26.1563 130.928 26.647 131.072 27.255 131.072Z"
    fill="white" />
  <path
    d="M36.0402 132C35.0056 132 34.1842 131.664 33.5762 130.992C32.9682 130.309 32.6216 129.419 32.5362 128.32C32.5256 128.16 32.5202 127.947 32.5202 127.68C32.5202 127.413 32.5256 127.2 32.5362 127.04C32.5896 126.315 32.7602 125.675 33.0482 125.12C33.3362 124.565 33.7309 124.133 34.2322 123.824C34.7442 123.515 35.3469 123.36 36.0402 123.36C36.7869 123.36 37.4216 123.525 37.9442 123.856C38.4669 124.187 38.8669 124.661 39.1442 125.28C39.4322 125.899 39.5762 126.635 39.5762 127.488V127.728C39.5762 127.835 39.5389 127.92 39.4642 127.984C39.4002 128.048 39.3149 128.08 39.2082 128.08H33.5122C33.5122 128.08 33.5122 128.101 33.5122 128.144C33.5122 128.187 33.5122 128.219 33.5122 128.24C33.5336 128.72 33.6456 129.179 33.8482 129.616C34.0509 130.043 34.3389 130.395 34.7122 130.672C35.0856 130.939 35.5282 131.072 36.0402 131.072C36.4989 131.072 36.8776 131.003 37.1762 130.864C37.4856 130.725 37.7309 130.576 37.9122 130.416C38.0936 130.245 38.2109 130.117 38.2642 130.032C38.3602 129.893 38.4349 129.813 38.4882 129.792C38.5416 129.76 38.6269 129.744 38.7442 129.744H39.0002C39.0962 129.744 39.1762 129.776 39.2402 129.84C39.3149 129.893 39.3469 129.968 39.3362 130.064C39.3256 130.213 39.2402 130.4 39.0802 130.624C38.9309 130.837 38.7122 131.051 38.4242 131.264C38.1469 131.477 37.8056 131.653 37.4002 131.792C36.9949 131.931 36.5416 132 36.0402 132ZM33.5122 127.184H38.6002V127.12C38.6002 126.587 38.4989 126.107 38.2962 125.68C38.0936 125.253 37.8002 124.917 37.4162 124.672C37.0322 124.416 36.5736 124.288 36.0402 124.288C35.5069 124.288 35.0482 124.416 34.6642 124.672C34.2909 124.917 34.0029 125.253 33.8002 125.68C33.6082 126.107 33.5122 126.587 33.5122 127.12V127.184Z"
    fill="white" />
  <path
    d="M47.8196 132C47.2009 132 46.6729 131.888 46.2356 131.664C45.8089 131.44 45.4623 131.141 45.1956 130.768C44.9289 130.395 44.7316 129.979 44.6036 129.52C44.4863 129.061 44.4169 128.597 44.3956 128.128C44.3849 127.968 44.3796 127.819 44.3796 127.68C44.3796 127.541 44.3849 127.392 44.3956 127.232C44.4169 126.763 44.4863 126.299 44.6036 125.84C44.7316 125.381 44.9289 124.965 45.1956 124.592C45.4623 124.219 45.8089 123.92 46.2356 123.696C46.6729 123.472 47.2009 123.36 47.8196 123.36C48.4809 123.36 49.0249 123.483 49.4516 123.728C49.8889 123.973 50.2409 124.272 50.5076 124.624V120.832C50.5076 120.725 50.5396 120.64 50.6036 120.576C50.6676 120.512 50.7529 120.48 50.8596 120.48H51.1316C51.2383 120.48 51.3236 120.512 51.3876 120.576C51.4516 120.64 51.4836 120.725 51.4836 120.832V131.488C51.4836 131.595 51.4516 131.68 51.3876 131.744C51.3236 131.808 51.2383 131.84 51.1316 131.84H50.8596C50.7529 131.84 50.6676 131.808 50.6036 131.744C50.5396 131.68 50.5076 131.595 50.5076 131.488V130.736C50.2409 131.099 49.8889 131.403 49.4516 131.648C49.0249 131.883 48.4809 132 47.8196 132ZM47.9156 131.072C48.5236 131.072 49.0143 130.928 49.3876 130.64C49.7609 130.352 50.0383 129.995 50.2196 129.568C50.4009 129.131 50.4969 128.693 50.5076 128.256C50.5183 128.096 50.5236 127.888 50.5236 127.632C50.5236 127.376 50.5183 127.168 50.5076 127.008C50.4969 126.581 50.3956 126.16 50.2036 125.744C50.0223 125.328 49.7449 124.981 49.3716 124.704C48.9983 124.427 48.5129 124.288 47.9156 124.288C47.2969 124.288 46.8009 124.427 46.4276 124.704C46.0649 124.981 45.8036 125.344 45.6436 125.792C45.4836 126.24 45.3929 126.72 45.3716 127.232C45.3609 127.531 45.3609 127.829 45.3716 128.128C45.3929 128.64 45.4836 129.12 45.6436 129.568C45.8036 130.016 46.0649 130.379 46.4276 130.656C46.8009 130.933 47.2969 131.072 47.9156 131.072Z"
    fill="white" />
  <path
    d="M57.1809 132C56.1462 132 55.3249 131.664 54.7169 130.992C54.1089 130.309 53.7622 129.419 53.6769 128.32C53.6662 128.16 53.6609 127.947 53.6609 127.68C53.6609 127.413 53.6662 127.2 53.6769 127.04C53.7302 126.315 53.9009 125.675 54.1889 125.12C54.4769 124.565 54.8715 124.133 55.3729 123.824C55.8849 123.515 56.4875 123.36 57.1809 123.36C57.9275 123.36 58.5622 123.525 59.0849 123.856C59.6075 124.187 60.0075 124.661 60.2849 125.28C60.5729 125.899 60.7169 126.635 60.7169 127.488V127.728C60.7169 127.835 60.6795 127.92 60.6049 127.984C60.5409 128.048 60.4555 128.08 60.3489 128.08H54.6529C54.6529 128.08 54.6529 128.101 54.6529 128.144C54.6529 128.187 54.6529 128.219 54.6529 128.24C54.6742 128.72 54.7862 129.179 54.9889 129.616C55.1915 130.043 55.4795 130.395 55.8529 130.672C56.2262 130.939 56.6689 131.072 57.1809 131.072C57.6395 131.072 58.0182 131.003 58.3169 130.864C58.6262 130.725 58.8715 130.576 59.0529 130.416C59.2342 130.245 59.3515 130.117 59.4049 130.032C59.5009 129.893 59.5755 129.813 59.6289 129.792C59.6822 129.76 59.7675 129.744 59.8849 129.744H60.1409C60.2369 129.744 60.3169 129.776 60.3809 129.84C60.4555 129.893 60.4875 129.968 60.4769 130.064C60.4662 130.213 60.3809 130.4 60.2209 130.624C60.0715 130.837 59.8529 131.051 59.5649 131.264C59.2875 131.477 58.9462 131.653 58.5409 131.792C58.1355 131.931 57.6822 132 57.1809 132ZM54.6529 127.184H59.7409V127.12C59.7409 126.587 59.6395 126.107 59.4369 125.68C59.2342 125.253 58.9409 124.917 58.5569 124.672C58.1729 124.416 57.7142 124.288 57.1809 124.288C56.6475 124.288 56.1889 124.416 55.8049 124.672C55.4315 124.917 55.1435 125.253 54.9409 125.68C54.7489 126.107 54.6529 126.587 54.6529 127.12V127.184Z"
    fill="white" />
  <path
    d="M69.6322 132C68.9709 132 68.4216 131.883 67.9842 131.648C67.5576 131.403 67.2109 131.099 66.9442 130.736V131.488C66.9442 131.595 66.9122 131.68 66.8482 131.744C66.7842 131.808 66.6989 131.84 66.5922 131.84H66.3202C66.2136 131.84 66.1282 131.808 66.0642 131.744C66.0002 131.68 65.9682 131.595 65.9682 131.488V120.832C65.9682 120.725 66.0002 120.64 66.0642 120.576C66.1282 120.512 66.2136 120.48 66.3202 120.48H66.5922C66.6989 120.48 66.7842 120.512 66.8482 120.576C66.9122 120.64 66.9442 120.725 66.9442 120.832V124.624C67.2109 124.272 67.5576 123.973 67.9842 123.728C68.4216 123.483 68.9709 123.36 69.6322 123.36C70.2616 123.36 70.7896 123.472 71.2162 123.696C71.6429 123.92 71.9896 124.219 72.2562 124.592C72.5229 124.965 72.7202 125.381 72.8482 125.84C72.9762 126.299 73.0456 126.763 73.0562 127.232C73.0669 127.392 73.0722 127.541 73.0722 127.68C73.0722 127.819 73.0669 127.968 73.0562 128.128C73.0456 128.597 72.9762 129.061 72.8482 129.52C72.7202 129.979 72.5229 130.395 72.2562 130.768C71.9896 131.141 71.6429 131.44 71.2162 131.664C70.7896 131.888 70.2616 132 69.6322 132ZM69.5362 131.072C70.1656 131.072 70.6616 130.933 71.0242 130.656C71.3869 130.379 71.6482 130.016 71.8082 129.568C71.9682 129.12 72.0589 128.64 72.0802 128.128C72.0909 127.829 72.0909 127.531 72.0802 127.232C72.0589 126.72 71.9682 126.24 71.8082 125.792C71.6482 125.344 71.3869 124.981 71.0242 124.704C70.6616 124.427 70.1656 124.288 69.5362 124.288C68.9496 124.288 68.4642 124.427 68.0802 124.704C67.7069 124.981 67.4242 125.328 67.2322 125.744C67.0509 126.16 66.9549 126.581 66.9442 127.008C66.9336 127.168 66.9282 127.376 66.9282 127.632C66.9282 127.888 66.9336 128.096 66.9442 128.256C66.9656 128.693 67.0616 129.131 67.2322 129.568C67.4136 129.995 67.6909 130.352 68.0642 130.64C68.4376 130.928 68.9282 131.072 69.5362 131.072Z"
    fill="white" />
  <path
    d="M78.3215 132C77.2868 132 76.4655 131.664 75.8575 130.992C75.2495 130.309 74.9028 129.419 74.8175 128.32C74.8068 128.16 74.8015 127.947 74.8015 127.68C74.8015 127.413 74.8068 127.2 74.8175 127.04C74.8708 126.315 75.0415 125.675 75.3295 125.12C75.6175 124.565 76.0121 124.133 76.5135 123.824C77.0255 123.515 77.6281 123.36 78.3215 123.36C79.0681 123.36 79.7028 123.525 80.2255 123.856C80.7481 124.187 81.1481 124.661 81.4255 125.28C81.7135 125.899 81.8575 126.635 81.8575 127.488V127.728C81.8575 127.835 81.8201 127.92 81.7455 127.984C81.6815 128.048 81.5961 128.08 81.4895 128.08H75.7935C75.7935 128.08 75.7935 128.101 75.7935 128.144C75.7935 128.187 75.7935 128.219 75.7935 128.24C75.8148 128.72 75.9268 129.179 76.1295 129.616C76.3321 130.043 76.6201 130.395 76.9935 130.672C77.3668 130.939 77.8095 131.072 78.3215 131.072C78.7801 131.072 79.1588 131.003 79.4575 130.864C79.7668 130.725 80.0121 130.576 80.1935 130.416C80.3748 130.245 80.4921 130.117 80.5455 130.032C80.6415 129.893 80.7161 129.813 80.7695 129.792C80.8228 129.76 80.9081 129.744 81.0255 129.744H81.2815C81.3775 129.744 81.4575 129.776 81.5215 129.84C81.5961 129.893 81.6281 129.968 81.6175 130.064C81.6068 130.213 81.5215 130.4 81.3615 130.624C81.2122 130.837 80.9935 131.051 80.7055 131.264C80.4281 131.477 80.0868 131.653 79.6815 131.792C79.2761 131.931 78.8228 132 78.3215 132ZM75.7935 127.184H80.8815V127.12C80.8815 126.587 80.7801 126.107 80.5775 125.68C80.3748 125.253 80.0815 124.917 79.6975 124.672C79.3135 124.416 78.8548 124.288 78.3215 124.288C77.7881 124.288 77.3295 124.416 76.9455 124.672C76.5721 124.917 76.2841 125.253 76.0815 125.68C75.8895 126.107 75.7935 126.587 75.7935 127.12V127.184Z"
    fill="white" />
  <path
    d="M84.3199 131.84C84.2132 131.84 84.1279 131.808 84.0639 131.744C83.9998 131.68 83.9678 131.595 83.9678 131.488V123.872C83.9678 123.765 83.9998 123.68 84.0639 123.616C84.1279 123.552 84.2132 123.52 84.3199 123.52H84.5919C84.6985 123.52 84.7839 123.552 84.8479 123.616C84.9119 123.68 84.9439 123.765 84.9439 123.872V124.624C85.2319 124.251 85.5785 123.947 85.9839 123.712C86.3999 123.477 86.9492 123.36 87.6319 123.36C88.3572 123.36 88.9598 123.52 89.4398 123.84C89.9305 124.149 90.2932 124.576 90.5279 125.12C90.7732 125.653 90.8959 126.261 90.8959 126.944V131.488C90.8959 131.595 90.8639 131.68 90.7999 131.744C90.7358 131.808 90.6505 131.84 90.5439 131.84H90.2719C90.1652 131.84 90.0799 131.808 90.0159 131.744C89.9519 131.68 89.9199 131.595 89.9199 131.488V127.024C89.9199 126.171 89.7119 125.504 89.2959 125.024C88.8799 124.533 88.2719 124.288 87.4719 124.288C86.7145 124.288 86.1012 124.533 85.6319 125.024C85.1732 125.504 84.9439 126.171 84.9439 127.024V131.488C84.9439 131.595 84.9119 131.68 84.8479 131.744C84.7839 131.808 84.6985 131.84 84.5919 131.84H84.3199Z"
    fill="white" />
  <path
    d="M96.4934 132C95.4587 132 94.6374 131.664 94.0294 130.992C93.4213 130.309 93.0747 129.419 92.9893 128.32C92.9787 128.16 92.9734 127.947 92.9734 127.68C92.9734 127.413 92.9787 127.2 92.9893 127.04C93.0427 126.315 93.2133 125.675 93.5014 125.12C93.7894 124.565 94.184 124.133 94.6854 123.824C95.1974 123.515 95.8 123.36 96.4934 123.36C97.24 123.36 97.8747 123.525 98.3974 123.856C98.92 124.187 99.32 124.661 99.5974 125.28C99.8854 125.899 100.029 126.635 100.029 127.488V127.728C100.029 127.835 99.992 127.92 99.9174 127.984C99.8533 128.048 99.768 128.08 99.6614 128.08H93.9654C93.9654 128.08 93.9654 128.101 93.9654 128.144C93.9654 128.187 93.9654 128.219 93.9654 128.24C93.9867 128.72 94.0987 129.179 94.3014 129.616C94.504 130.043 94.792 130.395 95.1654 130.672C95.5387 130.939 95.9814 131.072 96.4934 131.072C96.952 131.072 97.3307 131.003 97.6294 130.864C97.9387 130.725 98.184 130.576 98.3654 130.416C98.5467 130.245 98.664 130.117 98.7174 130.032C98.8134 129.893 98.888 129.813 98.9414 129.792C98.9947 129.76 99.08 129.744 99.1973 129.744H99.4534C99.5494 129.744 99.6293 129.776 99.6934 129.84C99.768 129.893 99.8 129.968 99.7894 130.064C99.7787 130.213 99.6934 130.4 99.5334 130.624C99.384 130.837 99.1654 131.051 98.8773 131.264C98.6 131.477 98.2587 131.653 97.8534 131.792C97.448 131.931 96.9947 132 96.4934 132ZM93.9654 127.184H99.0534V127.12C99.0534 126.587 98.952 126.107 98.7494 125.68C98.5467 125.253 98.2534 124.917 97.8694 124.672C97.4854 124.416 97.0267 124.288 96.4934 124.288C95.96 124.288 95.5014 124.416 95.1174 124.672C94.744 124.917 94.456 125.253 94.2533 125.68C94.0613 126.107 93.9654 126.587 93.9654 127.12V127.184Z"
    fill="white" />
  <path
    d="M103.198 131.84C103.091 131.84 103.006 131.808 102.942 131.744C102.878 131.68 102.846 131.595 102.846 131.488V124.448H101.422C101.315 124.448 101.23 124.416 101.166 124.352C101.102 124.288 101.07 124.203 101.07 124.096V123.872C101.07 123.765 101.102 123.68 101.166 123.616C101.23 123.552 101.315 123.52 101.422 123.52H102.846V122.608C102.846 122.128 102.91 121.691 103.038 121.296C103.176 120.901 103.416 120.587 103.758 120.352C104.11 120.117 104.611 120 105.262 120H106.094C106.2 120 106.286 120.032 106.35 120.096C106.414 120.16 106.446 120.245 106.446 120.352V120.576C106.446 120.683 106.414 120.768 106.35 120.832C106.286 120.896 106.2 120.928 106.094 120.928H105.262C104.696 120.928 104.312 121.083 104.11 121.392C103.918 121.691 103.822 122.123 103.822 122.688V123.52H105.934C106.04 123.52 106.126 123.552 106.19 123.616C106.254 123.68 106.286 123.765 106.286 123.872V124.096C106.286 124.203 106.254 124.288 106.19 124.352C106.126 124.416 106.04 124.448 105.934 124.448H103.822V131.488C103.822 131.595 103.79 131.68 103.726 131.744C103.662 131.808 103.576 131.84 103.47 131.84H103.198Z"
    fill="white" />
  <path
    d="M108.101 131.84C107.994 131.84 107.909 131.808 107.845 131.744C107.781 131.68 107.749 131.595 107.749 131.488V123.872C107.749 123.765 107.781 123.68 107.845 123.616C107.909 123.552 107.994 123.52 108.101 123.52H108.373C108.48 123.52 108.565 123.552 108.629 123.616C108.693 123.68 108.725 123.765 108.725 123.872V131.488C108.725 131.595 108.693 131.68 108.629 131.744C108.565 131.808 108.48 131.84 108.373 131.84H108.101ZM108.021 122.32C107.85 122.32 107.765 122.235 107.765 122.064C107.765 121.979 107.792 121.909 107.845 121.856L108.949 120.528C109.034 120.421 109.114 120.347 109.189 120.304C109.264 120.261 109.381 120.24 109.541 120.24H110.197C110.4 120.24 110.501 120.341 110.501 120.544C110.501 120.619 110.474 120.683 110.421 120.736L108.677 122.16C108.592 122.235 108.512 122.283 108.437 122.304C108.373 122.315 108.288 122.32 108.181 122.32H108.021Z"
    fill="white" />
  <path
    d="M114.464 132C113.717 132 113.082 131.856 112.56 131.568C112.037 131.269 111.637 130.843 111.36 130.288C111.093 129.733 110.949 129.077 110.928 128.32C110.917 128.16 110.912 127.947 110.912 127.68C110.912 127.413 110.917 127.2 110.928 127.04C110.949 126.272 111.093 125.616 111.36 125.072C111.637 124.517 112.037 124.096 112.56 123.808C113.082 123.509 113.717 123.36 114.464 123.36C115.029 123.36 115.514 123.44 115.92 123.6C116.336 123.749 116.677 123.952 116.944 124.208C117.21 124.453 117.413 124.725 117.552 125.024C117.69 125.323 117.765 125.616 117.776 125.904C117.786 126.011 117.754 126.096 117.68 126.16C117.605 126.224 117.52 126.256 117.424 126.256H117.2C117.093 126.256 117.013 126.235 116.96 126.192C116.917 126.139 116.869 126.048 116.816 125.92C116.592 125.312 116.282 124.891 115.888 124.656C115.504 124.411 115.029 124.288 114.464 124.288C113.738 124.288 113.136 124.512 112.656 124.96C112.186 125.397 111.936 126.117 111.904 127.12C111.882 127.493 111.882 127.867 111.904 128.24C111.936 129.243 112.186 129.968 112.656 130.416C113.136 130.853 113.738 131.072 114.464 131.072C115.029 131.072 115.504 130.955 115.888 130.72C116.282 130.475 116.592 130.048 116.816 129.44C116.869 129.312 116.917 129.227 116.96 129.184C117.013 129.131 117.093 129.104 117.2 129.104H117.424C117.52 129.104 117.605 129.136 117.68 129.2C117.754 129.264 117.786 129.349 117.776 129.456C117.765 129.691 117.717 129.925 117.632 130.16C117.546 130.395 117.413 130.624 117.232 130.848C117.061 131.072 116.848 131.269 116.592 131.44C116.336 131.611 116.026 131.744 115.664 131.84C115.312 131.947 114.912 132 114.464 132Z"
    fill="white" />
  <path
    d="M120.242 131.84C120.135 131.84 120.05 131.808 119.986 131.744C119.922 131.68 119.89 131.595 119.89 131.488V123.872C119.89 123.765 119.922 123.68 119.986 123.616C120.05 123.552 120.135 123.52 120.242 123.52H120.514C120.62 123.52 120.706 123.552 120.77 123.616C120.834 123.68 120.866 123.765 120.866 123.872V131.488C120.866 131.595 120.834 131.68 120.77 131.744C120.706 131.808 120.62 131.84 120.514 131.84H120.242ZM120.066 121.808C119.959 121.808 119.874 121.776 119.81 121.712C119.746 121.648 119.714 121.563 119.714 121.456V120.848C119.714 120.741 119.746 120.656 119.81 120.592C119.874 120.517 119.959 120.48 120.066 120.48H120.674C120.78 120.48 120.866 120.517 120.93 120.592C121.004 120.656 121.042 120.741 121.042 120.848V121.456C121.042 121.563 121.004 121.648 120.93 121.712C120.866 121.776 120.78 121.808 120.674 121.808H120.066Z"
    fill="white" />
  <path
    d="M126.62 132C125.852 132 125.207 131.84 124.684 131.52C124.172 131.2 123.778 130.763 123.5 130.208C123.234 129.653 123.09 129.035 123.068 128.352C123.058 128.192 123.052 127.968 123.052 127.68C123.052 127.392 123.058 127.168 123.068 127.008C123.09 126.315 123.234 125.696 123.5 125.152C123.778 124.597 124.172 124.16 124.684 123.84C125.207 123.52 125.852 123.36 126.62 123.36C127.388 123.36 128.028 123.52 128.54 123.84C129.063 124.16 129.458 124.597 129.724 125.152C130.002 125.696 130.151 126.315 130.172 127.008C130.183 127.168 130.188 127.392 130.188 127.68C130.188 127.968 130.183 128.192 130.172 128.352C130.151 129.035 130.002 129.653 129.724 130.208C129.458 130.763 129.063 131.2 128.54 131.52C128.028 131.84 127.388 132 126.62 132ZM126.62 131.072C127.367 131.072 127.975 130.832 128.444 130.352C128.914 129.872 129.164 129.179 129.196 128.272C129.207 128.112 129.212 127.915 129.212 127.68C129.212 127.445 129.207 127.248 129.196 127.088C129.164 126.171 128.914 125.477 128.444 125.008C127.975 124.528 127.367 124.288 126.62 124.288C125.874 124.288 125.266 124.528 124.796 125.008C124.327 125.477 124.076 126.171 124.044 127.088C124.034 127.248 124.028 127.445 124.028 127.68C124.028 127.915 124.034 128.112 124.044 128.272C124.076 129.179 124.327 129.872 124.796 130.352C125.266 130.832 125.874 131.072 126.62 131.072Z"
    fill="white" />
  <path
    d="M135.014 132C134.459 132 133.979 131.925 133.574 131.776C133.179 131.627 132.854 131.451 132.598 131.248C132.342 131.035 132.15 130.827 132.022 130.624C131.905 130.421 131.841 130.267 131.83 130.16C131.819 130.043 131.857 129.957 131.942 129.904C132.027 129.84 132.107 129.808 132.182 129.808H132.422C132.486 129.808 132.539 129.819 132.582 129.84C132.635 129.861 132.699 129.92 132.774 130.016C132.913 130.197 133.073 130.373 133.254 130.544C133.435 130.704 133.665 130.832 133.942 130.928C134.23 131.024 134.587 131.072 135.014 131.072C135.654 131.072 136.182 130.949 136.598 130.704C137.014 130.459 137.222 130.096 137.222 129.616C137.222 129.317 137.137 129.077 136.966 128.896C136.806 128.715 136.529 128.555 136.134 128.416C135.739 128.277 135.206 128.133 134.534 127.984C133.862 127.824 133.345 127.632 132.982 127.408C132.63 127.184 132.39 126.928 132.262 126.64C132.134 126.341 132.07 126.021 132.07 125.68C132.07 125.307 132.177 124.944 132.39 124.592C132.603 124.229 132.918 123.936 133.334 123.712C133.761 123.477 134.294 123.36 134.934 123.36C135.457 123.36 135.899 123.429 136.262 123.568C136.635 123.707 136.939 123.877 137.174 124.08C137.409 124.272 137.579 124.464 137.686 124.656C137.803 124.848 137.867 125.003 137.878 125.12C137.889 125.227 137.857 125.312 137.782 125.376C137.707 125.44 137.622 125.472 137.526 125.472H137.286C137.201 125.472 137.131 125.456 137.078 125.424C137.025 125.381 136.977 125.328 136.934 125.264C136.827 125.093 136.699 124.933 136.55 124.784C136.401 124.635 136.198 124.517 135.942 124.432C135.697 124.336 135.361 124.288 134.934 124.288C134.294 124.288 133.819 124.421 133.51 124.688C133.201 124.944 133.046 125.275 133.046 125.68C133.046 125.915 133.11 126.123 133.238 126.304C133.366 126.475 133.606 126.635 133.958 126.784C134.31 126.923 134.822 127.072 135.494 127.232C136.177 127.381 136.715 127.568 137.11 127.792C137.505 128.005 137.782 128.261 137.942 128.56C138.113 128.859 138.198 129.211 138.198 129.616C138.198 130.043 138.075 130.437 137.83 130.8C137.595 131.163 137.238 131.456 136.758 131.68C136.289 131.893 135.707 132 135.014 132Z"
    fill="white" />
  <path
    d="M73.896 38.3405C73.5299 38.7073 73.3245 39.2045 73.325 39.7228C73.3254 40.241 73.5318 40.7379 73.8986 41.104C74.2654 41.4701 74.7627 41.6755 75.2809 41.6751C75.7992 41.6746 76.296 41.4682 76.6621 41.1014L73.896 38.3405ZM82.7206 35.0352C82.9071 34.8549 83.0558 34.6393 83.158 34.4009C83.2603 34.1625 83.3141 33.9061 83.3162 33.6467C83.3183 33.3874 83.2688 33.1302 83.1704 32.8901C83.0721 32.6501 82.927 32.4321 82.7435 32.2487C82.5599 32.0654 82.3418 31.9204 82.1016 31.8223C81.8615 31.7242 81.6043 31.6749 81.3449 31.6773C81.0855 31.6797 80.8292 31.7337 80.5909 31.8362C80.3526 31.9387 80.1371 32.0876 79.957 32.2742L82.7206 35.0352ZM92.1155 18.8968L96.1293 22.9157L98.8928 20.1548L94.8817 16.1358L92.1155 18.8968ZM85.4372 34.9935L80.0716 29.6227L77.3107 32.3836L82.6711 37.7492L85.4372 34.9935ZM94.8661 28.7684L92.3682 29.7061L93.7434 33.363L96.2387 32.4253L94.8661 28.7684ZM85.3591 22.6605L86.2655 20.1861L82.5955 18.8421L81.6917 21.3139L85.3591 22.6605ZM80.8061 26.854C81.6605 26.6196 82.5721 26.3982 83.3248 25.8564L81.0432 22.6865C80.9911 22.723 80.9077 22.7751 79.7669 23.0903L80.8061 26.854ZM81.6917 21.3165C81.2854 22.4261 81.2229 22.5094 81.1838 22.5563L84.1583 25.0906C84.7574 24.3848 85.0543 23.494 85.3591 22.6605L81.6917 21.3165ZM83.3248 25.8564C83.6322 25.6341 83.91 25.3789 84.1583 25.0906L81.1838 22.5563C81.1425 22.6053 81.0952 22.6491 81.0432 22.6865L83.3248 25.8564ZM92.3682 29.7113C91.5399 30.0212 90.6543 30.3234 89.9537 30.9276L92.5114 33.8813C92.5583 33.8422 92.6417 33.7823 93.7434 33.3656L92.3682 29.7113ZM91.9827 35.293C92.2953 34.1574 92.35 34.0688 92.3864 34.0194L89.2114 31.7429C88.6722 32.4956 88.4508 33.4021 88.2164 34.2564L91.9827 35.293ZM89.9537 30.9276C89.675 31.1693 89.4259 31.4429 89.2114 31.7429L92.3864 34.0194C92.4233 33.9684 92.4635 33.922 92.5114 33.8813L89.9537 30.9276ZM80.0742 29.6279C79.2147 28.7684 78.6938 28.2396 78.3656 27.8307C78.0348 27.414 78.1676 27.4296 78.1676 27.6718L74.2607 27.6979C74.2685 28.7892 74.8128 29.6409 75.3103 30.2635C75.8052 30.8886 76.5215 31.597 77.3107 32.3889L80.0742 29.6279ZM79.7669 23.0903C78.6912 23.3872 77.7196 23.6503 76.9773 23.9498C76.2376 24.2441 75.3442 24.7129 74.7972 25.661L78.1833 27.6119C78.0608 27.8229 77.941 27.7734 78.4333 27.5755C78.9204 27.3801 79.634 27.1796 80.8035 26.8566L79.7669 23.0903ZM78.1676 27.6718C78.1676 27.651 78.1728 27.631 78.1833 27.6119L74.7972 25.661C74.4422 26.279 74.257 26.9852 74.2607 27.6979L78.1676 27.6718ZM82.6737 37.757C83.4681 38.5515 84.1818 39.2703 84.8095 39.773C85.4346 40.2705 86.2941 40.8201 87.3933 40.8227L87.4011 36.9157C87.646 36.9157 87.6616 37.046 87.2448 36.7152C86.8307 36.387 86.302 35.8582 85.4372 34.9935L82.6737 37.757ZM88.2164 34.2564C87.8934 35.4337 87.6902 36.1578 87.4949 36.6501C87.2943 37.1449 87.2422 37.0199 87.4558 36.8975L89.3911 40.294C90.347 39.747 90.8236 38.8484 91.1206 38.1061C91.4201 37.3585 91.6858 36.3792 91.9827 35.293L88.2164 34.2564ZM87.3933 40.8227C88.0966 40.8227 88.7842 40.6404 89.3911 40.294L87.4558 36.8975C87.4394 36.9077 87.4204 36.9157 87.4011 36.9157L87.3933 40.8227ZM96.1293 22.9157C97.5358 24.3223 98.4318 25.2313 98.9684 25.9528C99.221 26.294 99.32 26.4997 99.3565 26.6091L99.3721 26.6769V26.6847L103.191 27.5103C103.524 25.958 102.875 24.6635 102.107 23.6268C101.359 22.6162 100.211 21.4754 98.8928 20.1574L96.1293 22.9157ZM96.2387 32.4253C97.9838 31.7715 99.4997 31.2089 100.599 30.5995C101.727 29.9743 102.855 29.0627 103.191 27.5103L99.3721 26.6847L99.3695 26.6925L99.3252 26.7446C99.1395 26.9203 98.9288 27.0678 98.7001 27.1822C97.9187 27.6197 96.7284 28.0677 94.8661 28.7684L96.2387 32.4253ZM94.8791 16.1358C93.5533 14.8075 92.4047 13.6536 91.3888 12.9009C90.3496 12.1273 89.0473 11.4735 87.4871 11.8173L88.3284 15.6279L88.3492 15.6305L88.4013 15.6462C88.6399 15.743 88.8629 15.8746 89.0629 16.0369C89.787 16.576 90.6986 17.4798 92.1155 18.902L94.8791 16.1358ZM86.2629 20.1887C86.9557 18.3055 87.4011 17.1048 87.8335 16.3103C87.956 16.0634 88.1168 15.8375 88.3101 15.641L88.3232 15.6331H88.3284L87.4871 11.8173C85.9269 12.1611 85.0205 13.302 84.4006 14.4428C83.7989 15.5524 83.2415 17.0839 82.5955 18.8473L86.2629 20.1887ZM76.6621 41.1066L82.7206 35.0352L79.957 32.2769L73.896 38.3405L76.6621 41.1066Z"
    fill="white" />
  <path fill-rule="evenodd" clip-rule="evenodd"
    d="M86.9968 3.90701C82.7689 3.90003 78.6145 5.01176 74.9552 7.12934C74.0214 7.66971 72.8263 7.35077 72.2859 6.41697C71.7456 5.48317 72.0645 4.28812 72.9983 3.74775C77.2538 1.28518 82.085 -0.00778833 87.0016 3.52949e-05C102.465 0.000905777 115 12.5362 115 28C115 43.4644 102.464 56 87 56C71.5356 56 59 43.4644 59 28C59 22.9047 60.3635 18.1168 62.7479 13.998C63.2884 13.0643 64.4835 12.7456 65.4172 13.2861C66.3509 13.8267 66.6697 15.0218 66.1291 15.9555C64.0804 19.4944 62.907 23.6092 62.907 28C62.907 41.3066 73.6934 52.093 87 52.093C100.307 52.093 111.093 41.3066 111.093 28C111.093 14.6934 100.307 3.90701 87 3.90701L86.9968 3.90701Z"
    fill="white" />
</svg>