<svg width="24" height="24" viewBox="0 0 24 24" fill="none" xmlns="http://www.w3.org/2000/svg">
  <path fill-rule="evenodd" clip-rule="evenodd"
    d="M0.781049 0.781049C1.28115 0.280953 1.95942 0 2.66667 0H8C8.70724 0 9.38552 0.280953 9.88562 0.781049C10.3857 1.28115 10.6667 1.95942 10.6667 2.66667V8C10.6667 8.70724 10.3857 9.38552 9.88562 9.88562C9.38552 10.3857 8.70724 10.6667 8 10.6667H2.66667C1.95942 10.6667 1.28115 10.3857 0.781049 9.88562C0.280953 9.38552 0 8.70724 0 8V2.66667C0 1.95942 0.280953 1.28115 0.781049 0.781049ZM8 2.66667L2.66667 2.66667L2.66667 8H8V2.66667ZM14.1144 0.781049C14.6145 0.280953 15.2928 0 16 0H21.3333C22.0406 0 22.7189 0.280952 23.219 0.781049C23.7191 1.28115 24 1.95942 24 2.66667V8C24 8.70724 23.7191 9.38552 23.219 9.88562C22.7189 10.3857 22.0406 10.6667 21.3333 10.6667H16C15.2928 10.6667 14.6145 10.3857 14.1144 9.88562C13.6143 9.38552 13.3333 8.70724 13.3333 8V2.66667C13.3333 1.95942 13.6143 1.28115 14.1144 0.781049ZM21.3333 2.66667H16V8H21.3333V2.66667ZM5.33333 4C6.06971 4 6.66667 4.59695 6.66667 5.33333V5.34667C6.66667 6.08305 6.06971 6.68 5.33333 6.68C4.59695 6.68 4 6.08305 4 5.34667V5.33333C4 4.59695 4.59695 4 5.33333 4ZM18.6667 4C19.403 4 20 4.59695 20 5.33333V5.34667C20 6.08305 19.403 6.68 18.6667 6.68C17.9303 6.68 17.3333 6.08305 17.3333 5.34667V5.33333C17.3333 4.59695 17.9303 4 18.6667 4ZM0.781049 14.1144C1.28115 13.6143 1.95942 13.3333 2.66667 13.3333H8C8.70724 13.3333 9.38552 13.6143 9.88562 14.1144C10.3857 14.6145 10.6667 15.2928 10.6667 16V21.3333C10.6667 22.0406 10.3857 22.7189 9.88562 23.219C9.38552 23.7191 8.70724 24 8 24H2.66667C1.95942 24 1.28115 23.7191 0.781049 23.219C0.280952 22.7189 0 22.0406 0 21.3333V16C0 15.2928 0.280953 14.6145 0.781049 14.1144ZM13.3333 14.6667C13.3333 13.9303 13.9303 13.3333 14.6667 13.3333H18.6667C19.403 13.3333 20 13.9303 20 14.6667C20 15.403 19.403 16 18.6667 16H16V18.6667C16 19.403 15.403 20 14.6667 20C13.9303 20 13.3333 19.403 13.3333 18.6667V14.6667ZM22.6667 13.3333C23.403 13.3333 24 13.9303 24 14.6667V14.68C24 15.4164 23.403 16.0133 22.6667 16.0133C21.9303 16.0133 21.3333 15.4164 21.3333 14.68V14.6667C21.3333 13.9303 21.9303 13.3333 22.6667 13.3333ZM8 16H2.66667L2.66667 21.3333H8V16ZM5.33333 17.3333C6.06971 17.3333 6.66667 17.9303 6.66667 18.6667V18.68C6.66667 19.4164 6.06971 20.0133 5.33333 20.0133C4.59695 20.0133 4 19.4164 4 18.68V18.6667C4 17.9303 4.59695 17.3333 5.33333 17.3333ZM17.3333 18.6667C17.3333 17.9303 17.9303 17.3333 18.6667 17.3333H22.6667C23.403 17.3333 24 17.9303 24 18.6667V22.6667C24 23.403 23.403 24 22.6667 24C21.9303 24 21.3333 23.403 21.3333 22.6667V20H18.6667C17.9303 20 17.3333 19.403 17.3333 18.6667ZM13.3333 22.6667C13.3333 21.9303 13.9303 21.3333 14.6667 21.3333H18.6667C19.403 21.3333 20 21.9303 20 22.6667C20 23.403 19.403 24 18.6667 24H14.6667C13.9303 24 13.3333 23.403 13.3333 22.6667Z"
    fill="#F94144" />
</svg>